<mxfile host="app.diagrams.net" agent="Mozilla/5.0 (Windows NT 10.0; Win64; x64) AppleWebKit/537.36 (KHTML, like Gecko) Chrome/136.0.0.0 Safari/537.36" version="27.0.5">
  <diagram name="Página-1" id="IZqAts2g6bXaED-vM-Xr">
    <mxGraphModel dx="1226" dy="715" grid="1" gridSize="10" guides="1" tooltips="1" connect="1" arrows="1" fold="1" page="1" pageScale="1" pageWidth="827" pageHeight="1169" math="0" shadow="0">
      <root>
        <mxCell id="0" />
        <mxCell id="1" parent="0" />
        <mxCell id="0boTivlSuVRbXw25WTQz-3" value="&quot;LOGIN MUTARE&lt;div&gt;&lt;br&gt;&lt;/div&gt;&lt;div&gt;Digite o Email da sua conta MUTARE:&lt;span style=&quot;background-color: transparent; color: light-dark(rgb(0, 0, 0), rgb(255, 255, 255));&quot;&gt;&quot;&lt;/span&gt;&lt;/div&gt;" style="shape=document;whiteSpace=wrap;html=1;boundedLbl=1;" parent="1" vertex="1">
          <mxGeometry x="291" y="190" width="140" height="90" as="geometry" />
        </mxCell>
        <mxCell id="0boTivlSuVRbXw25WTQz-8" value="" style="endArrow=classic;html=1;rounded=0;entryX=0;entryY=0;entryDx=62;entryDy=0;entryPerimeter=0;exitX=0.541;exitY=0.907;exitDx=0;exitDy=0;exitPerimeter=0;" parent="1" source="0boTivlSuVRbXw25WTQz-3" target="0boTivlSuVRbXw25WTQz-5" edge="1">
          <mxGeometry width="50" height="50" relative="1" as="geometry">
            <mxPoint x="424" y="390" as="sourcePoint" />
            <mxPoint x="474" y="340" as="targetPoint" />
          </mxGeometry>
        </mxCell>
        <mxCell id="0boTivlSuVRbXw25WTQz-9" value="" style="group" parent="1" vertex="1" connectable="0">
          <mxGeometry x="309" y="290" width="104" height="60" as="geometry" />
        </mxCell>
        <mxCell id="0boTivlSuVRbXw25WTQz-5" value="" style="verticalLabelPosition=bottom;verticalAlign=top;html=1;shape=card;whiteSpace=wrap;size=20;arcSize=12;" parent="0boTivlSuVRbXw25WTQz-9" vertex="1">
          <mxGeometry width="104" height="60" as="geometry" />
        </mxCell>
        <mxCell id="0boTivlSuVRbXw25WTQz-6" value="Email" style="text;html=1;align=center;verticalAlign=middle;whiteSpace=wrap;rounded=0;" parent="0boTivlSuVRbXw25WTQz-9" vertex="1">
          <mxGeometry x="22" y="15" width="60" height="30" as="geometry" />
        </mxCell>
        <mxCell id="VMltcIXAbGf6lN5rMRbk-1" value="" style="edgeStyle=orthogonalEdgeStyle;rounded=0;orthogonalLoop=1;jettySize=auto;html=1;entryX=0.5;entryY=0;entryDx=0;entryDy=0;" parent="1" source="0boTivlSuVRbXw25WTQz-5" target="VMltcIXAbGf6lN5rMRbk-7" edge="1">
          <mxGeometry relative="1" as="geometry">
            <mxPoint x="352" y="400" as="targetPoint" />
          </mxGeometry>
        </mxCell>
        <mxCell id="VMltcIXAbGf6lN5rMRbk-30" value="" style="edgeStyle=orthogonalEdgeStyle;rounded=0;orthogonalLoop=1;jettySize=auto;html=1;entryX=1;entryY=0.5;entryDx=0;entryDy=0;" parent="1" source="VMltcIXAbGf6lN5rMRbk-7" target="VMltcIXAbGf6lN5rMRbk-21" edge="1">
          <mxGeometry relative="1" as="geometry" />
        </mxCell>
        <mxCell id="VMltcIXAbGf6lN5rMRbk-7" value="Email é igual a algum outro salvo no banco de dados&quot;?" style="rhombus;whiteSpace=wrap;html=1;" parent="1" vertex="1">
          <mxGeometry x="324.5" y="440" width="80" height="80" as="geometry" />
        </mxCell>
        <mxCell id="_lnYhkJ-__jE0vA7rewG-1" value="" style="edgeStyle=orthogonalEdgeStyle;rounded=0;orthogonalLoop=1;jettySize=auto;html=1;" parent="1" source="VMltcIXAbGf6lN5rMRbk-21" target="VMltcIXAbGf6lN5rMRbk-139" edge="1">
          <mxGeometry relative="1" as="geometry" />
        </mxCell>
        <mxCell id="VMltcIXAbGf6lN5rMRbk-21" value="&quot;Email não cadastrado.&amp;nbsp;&lt;span style=&quot;background-color: transparent; color: light-dark(rgb(0, 0, 0), rgb(255, 255, 255));&quot;&gt;Digite o Email Novamente&quot;&lt;/span&gt;" style="shape=document;whiteSpace=wrap;html=1;boundedLbl=1;" parent="1" vertex="1">
          <mxGeometry x="122" y="450" width="167" height="60" as="geometry" />
        </mxCell>
        <mxCell id="VMltcIXAbGf6lN5rMRbk-75" style="edgeStyle=orthogonalEdgeStyle;rounded=0;orthogonalLoop=1;jettySize=auto;html=1;exitX=1;exitY=0.5;exitDx=0;exitDy=0;entryX=0.5;entryY=0;entryDx=0;entryDy=0;" parent="1" source="VMltcIXAbGf6lN5rMRbk-7" target="VMltcIXAbGf6lN5rMRbk-64" edge="1">
          <mxGeometry relative="1" as="geometry">
            <mxPoint x="516" y="610" as="sourcePoint" />
          </mxGeometry>
        </mxCell>
        <mxCell id="VMltcIXAbGf6lN5rMRbk-61" value="Início" style="ellipse;whiteSpace=wrap;html=1;" parent="1" vertex="1">
          <mxGeometry x="219" y="70" width="90" height="60" as="geometry" />
        </mxCell>
        <mxCell id="VMltcIXAbGf6lN5rMRbk-64" value="&lt;div&gt;&lt;br&gt;&lt;/div&gt;&lt;div&gt;&quot;Digite a senha da sua conta:&lt;span style=&quot;background-color: transparent; color: light-dark(rgb(0, 0, 0), rgb(255, 255, 255));&quot;&gt;&quot;&lt;/span&gt;&lt;/div&gt;" style="shape=document;whiteSpace=wrap;html=1;boundedLbl=1;" parent="1" vertex="1">
          <mxGeometry x="405.5" y="510" width="190" height="43.75" as="geometry" />
        </mxCell>
        <mxCell id="VMltcIXAbGf6lN5rMRbk-72" value="" style="edgeStyle=orthogonalEdgeStyle;rounded=0;orthogonalLoop=1;jettySize=auto;html=1;entryX=0.5;entryY=0;entryDx=0;entryDy=0;exitX=0.496;exitY=0.918;exitDx=0;exitDy=0;exitPerimeter=0;" parent="1" source="VMltcIXAbGf6lN5rMRbk-73" target="VMltcIXAbGf6lN5rMRbk-74" edge="1">
          <mxGeometry relative="1" as="geometry">
            <mxPoint x="100.15200000000004" y="806.1300000000003" as="sourcePoint" />
            <mxPoint x="-169.25000000000023" y="979.6999999999998" as="targetPoint" />
            <Array as="points" />
          </mxGeometry>
        </mxCell>
        <mxCell id="VMltcIXAbGf6lN5rMRbk-73" value="&quot;Login realizado com sucesso&lt;span style=&quot;background-color: transparent; color: light-dark(rgb(0, 0, 0), rgb(255, 255, 255));&quot;&gt;&quot;&lt;/span&gt;" style="shape=document;whiteSpace=wrap;html=1;boundedLbl=1;" parent="1" vertex="1">
          <mxGeometry x="439.25" y="840.0000000000002" width="94" height="50" as="geometry" />
        </mxCell>
        <mxCell id="VMltcIXAbGf6lN5rMRbk-74" value="Menu Principal" style="ellipse;whiteSpace=wrap;html=1;" parent="1" vertex="1">
          <mxGeometry x="446.25" y="930" width="80" height="80" as="geometry" />
        </mxCell>
        <mxCell id="_lnYhkJ-__jE0vA7rewG-3" style="edgeStyle=orthogonalEdgeStyle;rounded=0;orthogonalLoop=1;jettySize=auto;html=1;exitX=0.5;exitY=1;exitDx=0;exitDy=0;entryX=0.5;entryY=0;entryDx=0;entryDy=0;" parent="1" source="VMltcIXAbGf6lN5rMRbk-85" target="0boTivlSuVRbXw25WTQz-3" edge="1">
          <mxGeometry relative="1" as="geometry" />
        </mxCell>
        <mxCell id="VMltcIXAbGf6lN5rMRbk-85" value="Digitar email novamente" style="ellipse;whiteSpace=wrap;html=1;aspect=fixed;" parent="1" vertex="1">
          <mxGeometry x="401" y="50" width="80" height="80" as="geometry" />
        </mxCell>
        <mxCell id="VMltcIXAbGf6lN5rMRbk-101" style="edgeStyle=orthogonalEdgeStyle;rounded=0;orthogonalLoop=1;jettySize=auto;html=1;exitX=0.5;exitY=1;exitDx=0;exitDy=0;entryX=0.5;entryY=0;entryDx=0;entryDy=0;" parent="1" source="VMltcIXAbGf6lN5rMRbk-61" target="0boTivlSuVRbXw25WTQz-3" edge="1">
          <mxGeometry relative="1" as="geometry">
            <mxPoint x="326" y="200" as="sourcePoint" />
          </mxGeometry>
        </mxCell>
        <mxCell id="VMltcIXAbGf6lN5rMRbk-112" value="" style="group" parent="1" vertex="1" connectable="0">
          <mxGeometry x="351.5" y="650" width="104" height="60" as="geometry" />
        </mxCell>
        <mxCell id="VMltcIXAbGf6lN5rMRbk-63" value="" style="verticalLabelPosition=bottom;verticalAlign=top;html=1;shape=card;whiteSpace=wrap;size=20;arcSize=12;" parent="VMltcIXAbGf6lN5rMRbk-112" vertex="1">
          <mxGeometry width="104" height="60" as="geometry" />
        </mxCell>
        <mxCell id="VMltcIXAbGf6lN5rMRbk-66" value="Senha da conta" style="text;html=1;align=center;verticalAlign=middle;whiteSpace=wrap;rounded=0;" parent="VMltcIXAbGf6lN5rMRbk-112" vertex="1">
          <mxGeometry x="22" y="15" width="60" height="30" as="geometry" />
        </mxCell>
        <mxCell id="VMltcIXAbGf6lN5rMRbk-115" value="" style="endArrow=classic;html=1;rounded=0;exitX=0.514;exitY=0.914;exitDx=0;exitDy=0;exitPerimeter=0;entryX=0;entryY=0;entryDx=62;entryDy=0;entryPerimeter=0;" parent="1" source="VMltcIXAbGf6lN5rMRbk-64" target="VMltcIXAbGf6lN5rMRbk-63" edge="1">
          <mxGeometry width="50" height="50" relative="1" as="geometry">
            <mxPoint x="345.5" y="810" as="sourcePoint" />
            <mxPoint x="395.5" y="760" as="targetPoint" />
            <Array as="points">
              <mxPoint x="503.5" y="630" />
              <mxPoint x="413.5" y="630" />
            </Array>
          </mxGeometry>
        </mxCell>
        <mxCell id="VMltcIXAbGf6lN5rMRbk-121" value="" style="edgeStyle=orthogonalEdgeStyle;rounded=0;orthogonalLoop=1;jettySize=auto;html=1;entryX=0.5;entryY=0;entryDx=0;entryDy=0;exitX=0.5;exitY=1;exitDx=0;exitDy=0;exitPerimeter=0;" parent="1" source="VMltcIXAbGf6lN5rMRbk-63" target="VMltcIXAbGf6lN5rMRbk-155" edge="1">
          <mxGeometry relative="1" as="geometry">
            <mxPoint x="402.5" y="760" as="targetPoint" />
            <mxPoint x="443" y="780" as="sourcePoint" />
          </mxGeometry>
        </mxCell>
        <mxCell id="VMltcIXAbGf6lN5rMRbk-139" value="Digitar email novamente" style="ellipse;whiteSpace=wrap;html=1;aspect=fixed;" parent="1" vertex="1">
          <mxGeometry x="9.5" y="440" width="80" height="80" as="geometry" />
        </mxCell>
        <mxCell id="VMltcIXAbGf6lN5rMRbk-156" style="edgeStyle=orthogonalEdgeStyle;rounded=0;orthogonalLoop=1;jettySize=auto;html=1;exitX=1;exitY=0.5;exitDx=0;exitDy=0;entryX=0.5;entryY=0;entryDx=0;entryDy=0;" parent="1" source="VMltcIXAbGf6lN5rMRbk-155" target="VMltcIXAbGf6lN5rMRbk-73" edge="1">
          <mxGeometry relative="1" as="geometry" />
        </mxCell>
        <mxCell id="VMltcIXAbGf6lN5rMRbk-158" value="" style="edgeStyle=orthogonalEdgeStyle;rounded=0;orthogonalLoop=1;jettySize=auto;html=1;" parent="1" source="VMltcIXAbGf6lN5rMRbk-155" target="VMltcIXAbGf6lN5rMRbk-157" edge="1">
          <mxGeometry relative="1" as="geometry" />
        </mxCell>
        <mxCell id="VMltcIXAbGf6lN5rMRbk-155" value="Senha corresponde a senha salva no banco de dados para o email digita&lt;span style=&quot;background-color: transparent; color: light-dark(rgb(0, 0, 0), rgb(255, 255, 255));&quot;&gt;do?&lt;/span&gt;" style="rhombus;whiteSpace=wrap;html=1;verticalAlign=top;arcSize=12;" parent="1" vertex="1">
          <mxGeometry x="360.5" y="740" width="104.5" height="93.13" as="geometry" />
        </mxCell>
        <mxCell id="VMltcIXAbGf6lN5rMRbk-160" value="" style="edgeStyle=orthogonalEdgeStyle;rounded=0;orthogonalLoop=1;jettySize=auto;html=1;" parent="1" source="VMltcIXAbGf6lN5rMRbk-157" target="VMltcIXAbGf6lN5rMRbk-159" edge="1">
          <mxGeometry relative="1" as="geometry" />
        </mxCell>
        <mxCell id="VMltcIXAbGf6lN5rMRbk-157" value="&quot;Senha incorreta. Digite-a novamente&quot;" style="shape=document;whiteSpace=wrap;html=1;boundedLbl=1;" parent="1" vertex="1">
          <mxGeometry x="237.5" y="754.8499999999999" width="98.5" height="63.44" as="geometry" />
        </mxCell>
        <mxCell id="VMltcIXAbGf6lN5rMRbk-159" value="Digitar senha login novamente" style="ellipse;whiteSpace=wrap;html=1;" parent="1" vertex="1">
          <mxGeometry x="122" y="746.565" width="80" height="80" as="geometry" />
        </mxCell>
        <mxCell id="VMltcIXAbGf6lN5rMRbk-162" style="edgeStyle=orthogonalEdgeStyle;rounded=0;orthogonalLoop=1;jettySize=auto;html=1;exitX=0;exitY=0.5;exitDx=0;exitDy=0;entryX=0.5;entryY=0;entryDx=0;entryDy=0;" parent="1" source="VMltcIXAbGf6lN5rMRbk-161" target="VMltcIXAbGf6lN5rMRbk-64" edge="1">
          <mxGeometry relative="1" as="geometry" />
        </mxCell>
        <mxCell id="VMltcIXAbGf6lN5rMRbk-161" value="Digitar senha login novamente" style="ellipse;whiteSpace=wrap;html=1;" parent="1" vertex="1">
          <mxGeometry x="614.5" y="440.0049999999999" width="80" height="80" as="geometry" />
        </mxCell>
        <mxCell id="Op-0wJ1cIvLsOhmIXbLP-5" value="V" style="text;html=1;align=center;verticalAlign=middle;resizable=0;points=[];autosize=1;strokeColor=none;fillColor=none;" vertex="1" parent="1">
          <mxGeometry x="465" y="758" width="30" height="30" as="geometry" />
        </mxCell>
        <mxCell id="Op-0wJ1cIvLsOhmIXbLP-6" value="F" style="text;html=1;align=center;verticalAlign=middle;resizable=0;points=[];autosize=1;strokeColor=none;fillColor=none;" vertex="1" parent="1">
          <mxGeometry x="335" y="758" width="30" height="30" as="geometry" />
        </mxCell>
      </root>
    </mxGraphModel>
  </diagram>
</mxfile>
